<svg xmlns="http://www.w3.org/2000/svg" viewBox="0 8.859999656677246 55.59000015258789 46.93000030517578" data-asc="0.9052734375"><g fill="#000000"><g fill="#000000" transform="translate(0, 0)"><path d="M0 30.32Q1.88 30.27 3.06 29.31Q4.25 28.34 4.64 26.66Q5.03 24.98 5.05 20.90Q5.08 16.82 5.20 15.53Q5.42 13.48 6.02 12.23Q6.62 10.99 7.50 10.24Q8.37 9.50 9.74 9.11Q10.67 8.86 12.77 8.86L14.14 8.86L14.14 12.70L13.38 12.70Q10.84 12.70 10.01 13.61Q9.18 14.53 9.18 17.70Q9.18 24.10 8.91 25.78Q8.47 28.39 7.41 29.81Q6.35 31.23 4.08 32.32Q6.76 33.45 7.97 35.75Q9.18 38.06 9.18 43.31Q9.18 48.07 9.28 48.97Q9.47 50.63 10.27 51.29Q11.06 51.95 13.38 51.95L14.14 51.95L14.14 55.79L12.77 55.79Q10.38 55.79 9.30 55.40Q7.74 54.83 6.71 53.58Q5.69 52.32 5.38 50.39Q5.08 48.46 5.05 44.07Q5.03 39.67 4.64 37.99Q4.25 36.30 3.06 35.33Q1.88 34.35 0 34.30L0 30.32ZM16.75 35.11L21.02 34.52Q21.19 38.62 22.56 40.14Q23.93 41.65 26.34 41.65Q28.13 41.65 29.42 40.83Q30.71 40.01 31.20 38.61Q31.69 37.21 31.69 34.13L31.69 9.47L36.43 9.47L36.43 33.86Q36.43 38.35 35.34 40.82Q34.25 43.29 31.90 44.58Q29.54 45.87 26.37 45.87Q21.66 45.87 19.15 43.16Q16.65 40.45 16.75 35.11ZM55.59 30.32L55.59 34.30Q53.71 34.35 52.53 35.33Q51.34 36.30 50.95 37.98Q50.56 39.65 50.54 43.73Q50.51 47.80 50.39 49.10Q50.17 51.17 49.57 52.40Q48.97 53.64 48.10 54.38Q47.22 55.13 45.85 55.52Q44.92 55.79 42.82 55.79L41.46 55.79L41.46 51.95L42.21 51.95Q44.75 51.95 45.58 51.04Q46.41 50.12 46.41 46.92Q46.41 40.82 46.63 39.18Q47.02 36.47 48.19 34.85Q49.37 33.23 51.51 32.32Q48.71 30.98 47.56 28.77Q46.41 26.56 46.41 21.31Q46.41 16.55 46.29 15.63Q46.12 13.99 45.32 13.34Q44.53 12.70 42.21 12.70L41.46 12.70L41.46 8.86L42.82 8.86Q45.21 8.86 46.29 9.25Q47.85 9.79 48.88 11.06Q49.90 12.33 50.21 14.26Q50.51 16.19 50.54 20.58Q50.56 24.98 50.95 26.65Q51.34 28.32 52.53 29.30Q53.71 30.27 55.59 30.32Z"/></g></g></svg>